HIERARCHY
ROOT Hips
{
	OFFSET 0.000000 121.760803 0.000000
	CHANNELS 6 Xposition Yposition Zposition Xrotation Yrotation Zrotation 
	JOINT Spine
	{
		OFFSET 0.072000 7.257294 -0.789700
		CHANNELS 3 Xrotation Yrotation Zrotation
		JOINT Spine1
		{
			OFFSET 0.000000 12.508769 -0.658067
			CHANNELS 3 Xrotation Yrotation Zrotation
			JOINT Spine1_split
			{
				OFFSET 0.000000 12.508769 -0.658067
				CHANNELS 3 Xrotation Yrotation Zrotation
				JOINT Spine2
				{
					OFFSET 0.000000 12.508769 -0.658067
					CHANNELS 3 Xrotation Yrotation Zrotation
					JOINT Neck
					{
						OFFSET 0.000000 14.033295 7.520400
						CHANNELS 3 Xrotation Yrotation Zrotation
						JOINT Head
						{
							OFFSET 0.000000 8.198502 5.703100
							CHANNELS 3 Xrotation Yrotation Zrotation
							JOINT HeadTop_End
							{
								OFFSET 0.000000 17.760803 13.332701
								CHANNELS 3 Xrotation Yrotation Zrotation
								End Site
								{
									OFFSET 0.000000 0.000000 0.000000
								}
							}
						}
					}
					JOINT LeftShoulder
					{
						OFFSET 6.292450 5.785301 -0.669000
						CHANNELS 3 Xrotation Yrotation Zrotation
						JOINT LeftShoulder_split
						{
							OFFSET 6.292450 5.785301 -0.669000
							CHANNELS 3 Xrotation Yrotation Zrotation
							JOINT LeftArm
							{
								OFFSET 13.907140 -6.093903 1.965100
								CHANNELS 3 Xrotation Yrotation Zrotation
								JOINT LeftForeArm
								{
									OFFSET 34.140198 0.000000 0.000000
									CHANNELS 3 Xrotation Yrotation Zrotation
									JOINT LeftHand
									{
										OFFSET 40.960209 0.000000 0.000000
										CHANNELS 3 Xrotation Yrotation Zrotation
										JOINT LeftHandThumb1
										{
											OFFSET 10.006996 -7.170425 9.573125
											CHANNELS 3 Xrotation Yrotation Zrotation
											JOINT LeftHandThumb2
											{
												OFFSET 1.835007 -1.059448 1.059443
												CHANNELS 3 Xrotation Yrotation Zrotation
												JOINT LeftHandThumb3
												{
													OFFSET 2.112267 -1.219513 1.219518
													CHANNELS 3 Xrotation Yrotation Zrotation
													JOINT LeftHandThumb4
													{
														OFFSET 4.843811 -2.796570 2.796576
														CHANNELS 3 Xrotation Yrotation Zrotation
														End Site
														{
															OFFSET 0.000000 0.000000 0.000000
														}
													}
												}
											}
										}
										JOINT LeftHandIndex1
										{
											OFFSET 18.389847 -0.922348 4.596882
											CHANNELS 3 Xrotation Yrotation Zrotation
											JOINT LeftHandIndex2
											{
												OFFSET 4.711273 0.000000 0.000000
												CHANNELS 3 Xrotation Yrotation Zrotation
												JOINT LeftHandIndex3
												{
													OFFSET 2.886131 0.000000 0.000000
													CHANNELS 3 Xrotation Yrotation Zrotation
													JOINT LeftHandIndex4
													{
														OFFSET 6.145912 0.000000 0.000000
														CHANNELS 3 Xrotation Yrotation Zrotation
														End Site
														{
															OFFSET 0.000000 0.000000 0.000000
														}
													}
												}
											}
										}
										JOINT LeftHandMiddle1
										{
											OFFSET 18.013008 0.000000 0.000000
											CHANNELS 3 Xrotation Yrotation Zrotation
											JOINT LeftHandMiddle2
											{
												OFFSET 4.946693 0.000000 0.000000
												CHANNELS 3 Xrotation Yrotation Zrotation
												JOINT LeftHandMiddle3
												{
													OFFSET 3.342232 0.000000 0.000000
													CHANNELS 3 Xrotation Yrotation Zrotation
													JOINT LeftHandMiddle4
													{
														OFFSET 4.461754 0.000000 0.000000
														CHANNELS 3 Xrotation Yrotation Zrotation
														End Site
														{
															OFFSET 0.000000 0.000000 0.000000
														}
													}
												}
											}
										}
										JOINT LeftHandRing1
										{
											OFFSET 15.849892 -0.102921 -4.126150
											CHANNELS 3 Xrotation Yrotation Zrotation
											JOINT LeftHandRing2
											{
												OFFSET 3.527054 0.000000 0.000000
												CHANNELS 3 Xrotation Yrotation Zrotation
												JOINT LeftHandRing3
												{
													OFFSET 2.961098 0.000000 0.000000
													CHANNELS 3 Xrotation Yrotation Zrotation
													JOINT LeftHandRing4
													{
														OFFSET 4.927200 0.000000 0.000000
														CHANNELS 3 Xrotation Yrotation Zrotation
														End Site
														{
															OFFSET 0.000000 0.000000 0.000000
														}
													}
												}
											}
										}
										JOINT LeftHandPinky1
										{
											OFFSET 12.791824 -0.832031 -6.799156
											CHANNELS 3 Xrotation Yrotation Zrotation
											JOINT LeftHandPinky2
											{
												OFFSET 3.327133 0.000000 0.000000
												CHANNELS 3 Xrotation Yrotation Zrotation
												JOINT LeftHandPinky3
												{
													OFFSET 3.014900 0.000000 0.000000
													CHANNELS 3 Xrotation Yrotation Zrotation
													JOINT LeftHandPinky4
													{
														OFFSET 5.847786 0.000000 0.000000
														CHANNELS 3 Xrotation Yrotation Zrotation
														End Site
														{
															OFFSET 0.000000 0.000000 0.000000
														}
													}
												}
											}
										}
									}
								}
							}
						}
					}
					JOINT RightShoulder
					{
						OFFSET -6.292450 5.785301 -0.669000
						CHANNELS 3 Xrotation Yrotation Zrotation
						JOINT RightShoulder_split
						{
							OFFSET -6.292450 5.785301 -0.669000
							CHANNELS 3 Xrotation Yrotation Zrotation
							JOINT RightArm
							{
								OFFSET -13.907140 -6.093903 1.965100
								CHANNELS 3 Xrotation Yrotation Zrotation
								JOINT RightForeArm
								{
									OFFSET -34.140198 0.000000 0.000000
									CHANNELS 3 Xrotation Yrotation Zrotation
									JOINT RightHand
									{
										OFFSET -40.960209 0.000000 0.000000
										CHANNELS 3 Xrotation Yrotation Zrotation
										JOINT RightHandThumb1
										{
											OFFSET -10.007050 -7.170456 9.573117
											CHANNELS 3 Xrotation Yrotation Zrotation
											JOINT RightHandThumb2
											{
												OFFSET -1.835007 -1.059448 1.059443
												CHANNELS 3 Xrotation Yrotation Zrotation
												JOINT RightHandThumb3
												{
													OFFSET -2.112267 -1.219513 1.219518
													CHANNELS 3 Xrotation Yrotation Zrotation
													JOINT RightHandThumb4
													{
														OFFSET -4.843834 -2.796585 2.796590
														CHANNELS 3 Xrotation Yrotation Zrotation
														End Site
														{
															OFFSET 0.000000 0.000000 0.000000
														}
													}
												}
											}
										}
										JOINT RightHandIndex1
										{
											OFFSET -18.389870 -0.922424 4.596786
											CHANNELS 3 Xrotation Yrotation Zrotation
											JOINT RightHandIndex2
											{
												OFFSET -4.711273 0.000000 0.000000
												CHANNELS 3 Xrotation Yrotation Zrotation
												JOINT RightHandIndex3
												{
													OFFSET -2.886131 0.000000 0.000000
													CHANNELS 3 Xrotation Yrotation Zrotation
													JOINT RightHandIndex4
													{
														OFFSET -6.145920 0.000000 0.000000
														CHANNELS 3 Xrotation Yrotation Zrotation
														End Site
														{
															OFFSET 0.000000 0.000000 0.000000
														}
													}
												}
											}
										}
										JOINT RightHandMiddle1
										{
											OFFSET -18.013008 0.000000 0.000000
											CHANNELS 3 Xrotation Yrotation Zrotation
											JOINT RightHandMiddle2
											{
												OFFSET -4.946693 0.000000 0.000000
												CHANNELS 3 Xrotation Yrotation Zrotation
												JOINT RightHandMiddle3
												{
													OFFSET -3.342232 0.000000 0.000000
													CHANNELS 3 Xrotation Yrotation Zrotation
													JOINT RightHandMiddle4
													{
														OFFSET -4.461754 0.000000 0.000000
														CHANNELS 3 Xrotation Yrotation Zrotation
														End Site
														{
															OFFSET 0.000000 0.000000 0.000000
														}
													}
												}
											}
										}
										JOINT RightHandRing1
										{
											OFFSET -15.849876 -0.102936 -4.126237
											CHANNELS 3 Xrotation Yrotation Zrotation
											JOINT RightHandRing2
											{
												OFFSET -3.527054 0.000000 0.000000
												CHANNELS 3 Xrotation Yrotation Zrotation
												JOINT RightHandRing3
												{
													OFFSET -2.961098 0.000000 0.000000
													CHANNELS 3 Xrotation Yrotation Zrotation
													JOINT RightHandRing4
													{
														OFFSET -4.927200 0.000000 0.000000
														CHANNELS 3 Xrotation Yrotation Zrotation
														End Site
														{
															OFFSET 0.000000 0.000000 0.000000
														}
													}
												}
											}
										}
										JOINT RightHandPinky1
										{
											OFFSET -12.791786 -0.832077 -6.799222
											CHANNELS 3 Xrotation Yrotation Zrotation
											JOINT RightHandPinky2
											{
												OFFSET -3.327133 0.000000 0.000000
												CHANNELS 3 Xrotation Yrotation Zrotation
												JOINT RightHandPinky3
												{
													OFFSET -3.014900 0.000000 0.000000
													CHANNELS 3 Xrotation Yrotation Zrotation
													JOINT RightHandPinky4
													{
														OFFSET -5.847786 0.000000 0.000000
														CHANNELS 3 Xrotation Yrotation Zrotation
														End Site
														{
															OFFSET 0.000000 0.000000 0.000000
														}
													}
												}
											}
										}
									}
								}
							}
						}
					}
				}
			}
		}
	}
	JOINT LeftUpLeg
	{
		OFFSET 13.026900 -6.336304 -1.092800
		CHANNELS 3 Xrotation Yrotation Zrotation
		JOINT LeftLeg
		{
			OFFSET 0.524474 -46.096886 9.782700
			CHANNELS 3 Xrotation Yrotation Zrotation
			JOINT LeftFoot
			{
				OFFSET -0.524474 -53.427422 -12.948200
				CHANNELS 3 Xrotation Yrotation Zrotation
				JOINT LeftToeBase
				{
					OFFSET 0.192200 -14.009700 16.364100
					CHANNELS 3 Xrotation Yrotation Zrotation
					JOINT LeftToe_End
					{
						OFFSET -1.784700 -0.561700 9.474800
						CHANNELS 3 Xrotation Yrotation Zrotation
						End Site
						{
							OFFSET 0.000000 0.000000 0.000000
						}
					}
				}
			}
		}
	}
	JOINT RightUpLeg
	{
		OFFSET -12.883000 -6.336304 -1.092800
		CHANNELS 3 Xrotation Yrotation Zrotation
		JOINT RightLeg
		{
			OFFSET -0.524587 -46.096825 9.782800
			CHANNELS 3 Xrotation Yrotation Zrotation
			JOINT RightFoot
			{
				OFFSET 0.524587 -53.427383 -12.948300
				CHANNELS 3 Xrotation Yrotation Zrotation
				JOINT RightToeBase
				{
					OFFSET -0.192200 -14.009700 16.364100
					CHANNELS 3 Xrotation Yrotation Zrotation
					JOINT RightToe_End
					{
						OFFSET 1.784700 -0.561700 9.474800
						CHANNELS 3 Xrotation Yrotation Zrotation
						End Site
						{
							OFFSET 0.000000 0.000000 0.000000
						}
					}
				}
			}
		}
	}
}
MOTION
Frames: 4
Frame Time: 0.016667
12.766331 230.465759 84.931007 6.077647 18.345721 -2.011849 7.375968 -1.391305 -2.416983 14.411475 -2.597694 1.282297 0.000000 0.000000 0.000000 14.393225 -2.607810 1.534273 -3.431886 0.659722 -7.971159 -4.476598 -10.464170 13.497320 0.000002 0.000000 0.000000 -1.645766 11.892281 6.117614 0.000000 0.000000 0.000000 -105.464459 -55.286642 -116.659098 0.000196 -92.898919 0.000210 -8.263639 -7.356839 2.186930 -3.500399 23.141898 9.972921 -2.408866 12.775513 10.381918 -3.572577 4.191485 6.966306 -0.000000 0.000000 0.000001 0.080933 1.054718 -8.775054 0.139290 1.380634 -11.520108 0.034878 0.693823 -5.759218 0.000000 0.000000 -0.000000 0.080639 1.052811 -8.759064 0.139656 1.382526 -11.536108 0.034897 0.693822 -5.759219 -0.000003 0.000001 -0.000000 0.080940 1.054715 -8.775043 0.139262 1.380640 -11.520120 0.034890 0.693823 -5.759221 0.000000 0.000001 0.000000 0.683445 5.064141 -8.296815 0.133625 -2.674901 -12.020597 0.034883 0.693824 -5.759217 -0.000001 0.000000 0.000000 2.075060 14.947591 1.840486 0.000000 0.000000 0.000000 -36.947311 40.337567 63.095034 -0.000015 48.043834 0.000022 31.938941 2.596834 0.748836 -7.605208 -2.521708 -16.077630 4.602784 -15.232220 -8.617251 -1.023794 -3.032502 -6.344382 0.000001 -0.000001 0.000001 0.672570 -2.988284 25.363202 0.151865 -1.448125 11.972211 0.038054 -0.728016 5.985142 0.000000 -0.000002 0.000000 0.672566 -2.988283 25.363201 0.151858 -1.448120 11.972213 0.038062 -0.728030 5.985147 0.000002 0.000002 -0.000000 0.672566 -2.988277 25.363201 0.151860 -1.448135 11.972219 0.038057 -0.728020 5.985149 -0.000000 -0.000000 -0.000001 0.672570 -2.988282 25.363201 0.151862 -1.448133 11.972221 0.038053 -0.728030 5.985147 -0.000000 0.000000 -0.000002 -37.202685 20.854519 11.181339 55.535394 -2.829758 0.008547 10.118646 -1.011813 -12.582090 0.000005 -0.000003 -0.000003 -0.000001 -0.000002 0.000003 -51.732980 2.068293 -17.058012 26.855382 8.316504 0.815309 12.552704 18.459963 23.488165 0.000002 0.000004 -0.000006 0.000000 -0.000001 -0.000000 
12.966863 227.037842 88.236259 5.017501 18.167385 -1.491932 7.411129 -1.269059 -2.470316 14.383885 -2.380558 1.213555 0.000000 0.000000 0.000000 14.364175 -2.405678 1.448312 -3.302225 0.547485 -7.776383 -3.709833 -10.667866 13.127596 0.000000 0.000000 0.000000 -1.522754 11.317944 5.579480 0.000000 0.000000 0.000000 -102.529404 -55.782992 -113.588792 -0.002122 -91.991713 -0.002283 -9.879215 -6.284511 1.313727 -3.500362 23.141774 9.972878 -2.408825 12.775491 10.381835 -3.572555 4.191464 6.966291 0.000000 0.000001 0.000000 0.080943 1.054708 -8.774991 0.139251 1.380628 -11.520029 0.034908 0.693811 -5.759175 -0.000004 0.000001 -0.000001 0.080632 1.052807 -8.759013 0.139667 1.382515 -11.536027 0.034894 0.693814 -5.759177 0.000000 0.000000 -0.000000 0.080940 1.054712 -8.774995 0.139254 1.380631 -11.520035 0.034895 0.693815 -5.759183 0.000006 -0.000001 -0.000001 0.683438 5.064142 -8.296738 0.133610 -2.674908 -12.020522 0.034889 0.693817 -5.759181 0.000002 0.000001 0.000001 2.084721 14.908510 1.923958 0.000000 0.000000 0.000000 -37.666137 40.172591 63.297740 0.000000 48.302688 -0.000016 32.519405 2.624571 1.993030 -7.604266 -2.522129 -16.076194 4.602786 -15.232172 -8.617185 -1.023789 -3.032475 -6.344369 -0.000003 -0.000001 0.000004 0.672569 -2.988248 25.363013 0.151857 -1.448119 11.972141 0.038078 -0.728015 5.985097 0.000001 -0.000000 -0.000000 0.672571 -2.988258 25.363016 0.151859 -1.448095 11.972131 0.038078 -0.728030 5.985107 -0.000000 0.000002 -0.000000 0.672570 -2.988260 25.363016 0.151855 -1.448099 11.972130 0.038068 -0.728028 5.985113 0.000000 -0.000000 -0.000000 0.672573 -2.988262 25.363009 0.151857 -1.448103 11.972131 0.038073 -0.728023 5.985105 -0.000000 -0.000001 0.000001 -36.226193 20.839483 10.870962 54.374422 -2.152219 0.028838 11.238928 -1.306196 -12.580414 0.000006 -0.000001 -0.000006 -0.000003 -0.000001 0.000003 -49.680843 1.530509 -17.120117 26.732614 7.999845 0.885108 13.792508 19.348444 22.584920 0.000003 -0.000003 0.000000 -0.000000 -0.000003 0.000000 
13.173795 223.300018 91.568321 3.932917 17.873893 -0.967024 7.433616 -1.145197 -2.523381 14.331764 -2.196023 1.072488 0.000000 0.000000 0.000000 14.312112 -2.231724 1.291077 -3.139339 0.436493 -7.492982 -2.915441 -10.754770 12.844841 0.000001 0.000000 -0.000000 -1.447293 10.959924 5.211207 0.000000 0.000000 0.000000 -99.827695 -56.207222 -110.766687 -0.001630 -90.695767 -0.002099 -11.177049 -5.296994 0.456590 -3.500320 23.141564 9.972819 -2.408770 12.775462 10.381752 -3.572518 4.191441 6.966238 -0.000001 -0.000001 -0.000002 0.080921 1.054697 -8.774904 0.139274 1.380614 -11.519919 0.034891 0.693811 -5.759119 -0.000001 -0.000001 0.000001 0.080636 1.052792 -8.758917 0.139643 1.382508 -11.535910 0.034889 0.693810 -5.759113 -0.000001 0.000000 0.000001 0.080919 1.054699 -8.774901 0.139280 1.380612 -11.519926 0.034881 0.693810 -5.759122 0.000002 -0.000000 0.000001 0.683421 5.064131 -8.296656 0.133615 -2.674928 -12.020406 0.034888 0.693811 -5.759117 0.000000 -0.000001 0.000000 2.080142 14.739085 2.062840 0.000000 0.000000 0.000000 -38.227824 39.650959 63.883681 0.000035 49.554375 -0.000037 33.231777 2.131656 3.145253 -7.602986 -2.522629 -16.074147 4.602788 -15.232078 -8.617084 -1.023795 -3.032460 -6.344327 0.000001 0.000001 0.000001 0.672545 -2.988213 25.362760 0.151874 -1.448088 11.971985 0.038059 -0.728005 5.985056 0.000002 -0.000001 -0.000000 0.672535 -2.988212 25.362767 0.151867 -1.448099 11.971991 0.038061 -0.728019 5.985062 0.000001 0.000001 0.000000 0.672544 -2.988212 25.362767 0.151860 -1.448085 11.971979 0.038054 -0.728015 5.985063 -0.000003 -0.000002 0.000001 0.672538 -2.988208 25.362765 0.151871 -1.448102 11.971990 0.038064 -0.728012 5.985061 -0.000001 0.000001 -0.000001 -34.997811 20.736529 10.511498 52.960375 -1.949248 0.034390 12.067349 -1.549131 -12.943674 -0.000009 -0.000013 0.000012 -0.000001 0.000003 0.000001 -47.561326 0.859696 -17.056970 26.641334 7.737834 0.931726 15.020455 19.717535 21.457287 0.000001 0.000001 0.000000 -0.000000 0.000001 0.000000 
13.384963 219.270691 94.914902 2.862763 17.508879 -0.467310 7.437092 -1.020924 -2.562277 14.253386 -2.029490 0.889714 0.000000 0.000000 0.000000 14.234362 -2.070371 1.095188 -2.973563 0.335321 -7.170157 -2.167489 -10.752426 12.661435 0.000001 0.000000 0.000000 -1.416800 10.842148 5.015828 0.000000 0.000000 0.000000 -97.509222 -56.558478 -108.357857 -0.037676 -89.117925 -0.037505 -12.155375 -4.424787 -0.433210 -3.500286 23.141371 9.972776 -2.408703 12.775395 10.381617 -3.572494 4.191423 6.966194 -0.000001 0.000000 -0.000001 0.080914 1.054697 -8.774812 0.139273 1.380594 -11.519794 0.034893 0.693803 -5.759061 -0.000002 -0.000000 -0.000001 0.080621 1.052793 -8.758819 0.139650 1.382489 -11.535786 0.034898 0.693799 -5.759058 -0.000002 -0.000000 0.000000 0.080912 1.054695 -8.774820 0.139280 1.380595 -11.519794 0.034890 0.693804 -5.759059 -0.000004 -0.000000 0.000000 0.683409 5.064128 -8.296559 0.133624 -2.674939 -12.020280 0.034892 0.693802 -5.759061 -0.000002 0.000000 0.000000 2.065509 14.495185 2.197897 0.000000 0.000000 0.000000 -38.516393 38.803927 64.754913 -0.000003 51.747101 0.000017 34.057584 1.236713 4.088629 -7.601789 -2.522978 -16.072115 4.602785 -15.232036 -8.617007 -1.023810 -3.032412 -6.344269 0.000001 0.000000 0.000000 0.672533 -2.988195 25.362507 0.151848 -1.448091 11.971883 0.038065 -0.727998 5.984981 -0.000002 -0.000002 0.000001 0.672537 -2.988189 25.362504 0.151844 -1.448094 11.971884 0.038062 -0.728002 5.984992 -0.000000 0.000001 -0.000001 0.672534 -2.988189 25.362504 0.151846 -1.448098 11.971892 0.038054 -0.728003 5.984985 0.000001 0.000000 -0.000000 0.672536 -2.988192 25.362507 0.151849 -1.448089 11.971878 0.038058 -0.728007 5.984986 -0.000000 0.000001 -0.000001 -33.590512 20.561263 10.094214 51.263005 -2.061690 0.029125 12.663492 -1.752661 -13.576688 0.000002 -0.000002 -0.000008 -0.000002 -0.000001 0.000003 -45.377567 0.068428 -16.900509 26.545067 7.516276 0.954254 16.217992 19.575962 20.217888 0.000005 0.000006 -0.000002 -0.000001 0.000002 0.000000 
